<svg version="1" xmlns="http://www.w3.org/2000/svg" width="682.667" height="682.667" viewBox="0 0 512.000000 512.000000"><path d="M151.5 68.3c-56.7 33.1-104.3 61-105.8 62L43 132v247.9l2.7 1.9C51.6 385.8 254.9 504 256 504c1.1 0 204.4-118.2 210.3-122.2l2.7-1.9V132l-3.7-2.4C454.7 122.8 257 8 255.8 8c-.7.1-47.7 27.2-104.3 60.3zM289.1 200c17.8 25.6 34 49.9 36.1 54 9.8 19.4 10.7 44 2.2 64.2-5.9 14.2-19 29.1-32.5 37.1-28.3 16.7-66 12.6-90.7-9.8-25.2-22.9-32.6-60.9-17.6-90.8 3.9-7.7 69.1-102.5 69.8-101.5.2.2 14.9 21.2 32.7 46.8z"/></svg>