<svg version="1" xmlns="http://www.w3.org/2000/svg" width="682.667" height="682.667" viewBox="0 0 512.000000 512.000000"><path d="M134 88.2c-2.5 2.3-9.2 8.5-15 13.9-5.8 5.3-11.9 11-13.6 12.6-1.7 1.5-7.8 7.1-13.5 12.3-5.6 5.2-11.4 10.6-12.8 11.8-1.4 1.3-7.1 6.6-12.6 11.7s-11.4 10.6-13.1 12.2c-4.3 3.8-22.1 20.3-31.3 28.8-4.2 3.8-10.2 9.5-13.3 12.5L3 209.5l6.8 5.7c10.4 8.9 23.4 20.2 25.6 22.3.6.6 4.5 3.9 8.6 7.5 4.1 3.5 9.1 7.8 11 9.6 1.9 1.8 4.9 4.3 6.5 5.5 1.7 1.3 3.5 2.9 4 3.5.6.6 9.6 8.4 20 17.5 10.5 9 19.2 16.6 19.5 16.9.3.3 7 6.1 15 13 8 6.8 14.7 12.7 15 13 .3.3 5.5 4.8 11.5 10 6.1 5.2 12.4 10.7 14 12.1 1.7 1.5 10.7 9.3 20 17.4 9.4 8.1 18.4 15.9 20 17.4 1.7 1.4 9.5 8.2 17.5 15.1s14.7 12.7 15 13c.3.3 5.5 5 11.7 10.3l11.2 9.8 10.8-9.3c5.9-5 12.4-10.6 14.3-12.4 1.9-1.8 10.7-9.4 19.5-17s16.5-14.3 17.1-14.9c.6-.5 3.8-3.3 7-6.1 10.5-9.1 54.4-47.1 60.4-52.4.9-.8 4.3-3.8 7.5-6.5 3.2-2.8 7.4-6.4 9.4-8.1 2-1.7 5.9-5.1 8.7-7.5 2.7-2.4 7.9-6.9 11.5-10 3.5-3.1 10.2-9 14.9-13 4.7-4.1 9.9-8.6 11.5-10 1.7-1.5 5.5-4.8 8.5-7.4 3-2.6 8-6.9 11-9.6 3-2.7 6.7-5.9 8.2-7.1 1.5-1.3 9.4-8.2 17.7-15.3l15.1-13-6.3-6c-5.5-5.3-20.9-19.5-36.1-33.5-2.7-2.5-6.1-5.6-7.6-7-1.5-1.4-5.1-4.8-8.1-7.5-3-2.8-10.9-10.1-17.7-16.4-6.7-6.2-13.1-12.2-14.2-13.1-1.2-1-7.1-6.5-13.3-12.2-6.1-5.6-13.9-12.8-17.2-15.9-3.3-3-8-7.4-10.5-9.7l-4.5-4.2H256l-117.5.1-4.5 4.1zm197.2 68.4c1.3 1.1 10.6 9.4 20.8 18.4 10.2 9 18.7 16.7 19 17 .3.3 4 3.6 8.4 7.4l7.8 7-2.9 2.5c-8.8 7.7-18.3 16.1-22.8 20.1-13.9 12.2-20.2 17.8-23.9 21-2.3 1.9-4.3 3.7-4.6 4-.3.3-4.1 3.6-8.5 7.5-4.4 3.8-8.2 7.2-8.5 7.5-.3.3-3.9 3.4-8 7s-7.7 6.7-8 7c-.3.3-5.7 5-12 10.5s-12 10.4-12.6 11c-1.2 1.1-12.7 11.3-16.3 14.4-1.3 1.2-2.7 2.1-3 2.1-.3 0-2.7-2-5.2-4.3s-5.9-5.3-7.5-6.7c-3.9-3.4-35.6-31.2-37-32.5-1.8-1.6-6.6-5.9-27.9-24.5-11-9.6-20.2-17.7-20.5-18-.3-.3-3.9-3.4-8-7-4.1-3.5-7.7-6.7-8-7-.5-.5-16.2-14.2-17-14.8-.3-.2.9-1.5 2.5-2.9 1.7-1.4 5.9-5.1 9.4-8.2 3.6-3.1 8.3-7.2 10.5-9.1 2.3-1.9 4.6-4 5.2-4.5.6-.6 2.4-2.1 4-3.5 10.9-9.3 25.9-22.4 26.2-22.9.1-.3 33-.6 73.1-.6 72.2 0 73 .1 75.3 2.1z"/></svg>