<svg version="1" xmlns="http://www.w3.org/2000/svg" width="682.667" height="682.667" viewBox="0 0 512.000000 512.000000"><path d="M371 30.4c-38.5 13.5-73.8 48.8-100.5 100.3-3.2 6.2-5.9 11.2-6.1 11-.1-.1-2.1-3.8-4.5-8.2-8.5-15.9-18.6-29.5-30.3-40.9-16.8-16.2-38.3-29.2-56.6-34.2-9-2.4-30-2.4-39 0-9.6 2.6-21.7 8.6-28.5 14.1-6.6 5.3-7.2 5.9-16.3 16.1-8.7 9.9-14.7 12.9-29.7 14.9-2.7.4-5.9.8-7 1-1.1.1-5.8.8-10.5 1.4-17.6 2.5-19.1 2.8-20.3 4-1.1 1.1 1.5 16.1 5.4 32.1 9.1 36.9 40.5 62.8 78.1 64.5 4.4.2 8.2.6 8.4.8.6.6.5 35.3-.1 46.2-2.5 45-11.3 94.9-23.8 135.5l-2.3 7.4-4.5-.2c-13.7-.8-27.7 8-34 21.3-9.8 20.7 3 47.2 25.9 54 4.3 1.3 11.3 1.5 41.8 1.3l36.6-.3 2.4-2.8c3.5-4.1 3.3-9.5-.6-13.2l-3-2.8-36.2-.1-36.3-.1L76 451c-14-9.9-14.8-26.8-1.6-33.7 6.1-3.2 10.6-2.2 27.6 6.2 15.3 7.5 15.9 7.7 19.4 6.5 6.3-2 8.8-8.5 5.5-13.9-1.3-2.2-4.5-4.4-11.1-7.6-5-2.5-9.3-4.7-9.5-4.9-.2-.2 1.8-8.4 4.6-18.2 6.2-22.5 9.3-35.6 10.7-44.2.3-2 .8-4 1-4.3.2-.3.5-1.9.8-3.5.7-3.9 1.5-8.7 2.1-12.7.3-1.7 1-5.7 1.5-8.7.5-3 1.2-8 1.5-11 .3-3 .8-6.6 1-8 .3-1.4.7-5.4 1-9 .4-3.6.8-7.9 1-9.5 2.1-16.5 2.6-81.6.6-85.3-1-1.9-2.2-2-18.8-2.4-14.7-.4-18.9-.8-24.3-2.6-12.8-4.2-25.4-13.6-33-24.7l-3-4.3 3.4-2.2c8.5-5.2 13.8-14.4 14.2-24.5.2-3.8.7-7 1.1-7.1 10.7-2.3 21.1-8.2 29-16.7C118 86.3 124 81.8 136.5 78.1c11.1-3.3 18.9-3.1 27.7.8 7.3 3.3 9 5.2 9.5 10.8.6 6.1-1 11.9-8.6 31.3-6.6 16.5-8.4 22-10.1 30.5-1.6 7.6-1.6 19.7 0 25.5 6.8 25.2 33.3 37.7 55.8 26.3 16.3-8.2 27.7-37 16.4-41.1-7.7-2.8-11.5-.9-14.1 7.1-4.3 12.8-11.2 19.2-20.3 18.9-7.9-.3-16.1-6.9-18.6-14.8-1.4-4.6-.8-17.5 1.1-23.9 1.9-6.4 8.2-23.1 11.7-31 3.4-7.8 6.8-21.5 6.5-26.7-.2-2.4 0-2.6 1.9-1.6 4 2.1 14.1 10.2 20.9 16.7 6.2 5.9 20.7 23.9 20.7 25.6 0 .4.8 1.9 1.9 3.3 4.6 6.6 22.1 42.8 22.1 45.7 0 .7.9 3.5 2.1 6.2 1.2 2.6 3.1 7.9 4.4 11.8 1.3 3.8 6 16.9 10.5 29 4.5 12.1 10.2 27.6 12.7 34.5 2.5 6.9 4.9 13.4 5.4 14.5 2 4.5 27.2 73.5 28.9 79 2.9 9.4 4.1 18.9 3.9 29.6-.3 20.6-6.7 36.1-20.4 49.4-12 11.7-26.4 17.8-42.4 17.8-4.7 0-9.7-.3-11.1-.5-18-3.9-31.2-12.4-40.9-26.3-8.2-11.7-12.3-25.1-12.5-40.5-.1-17.6 1.2-23.2 12.5-53.7 4.4-12 10.3-27.9 13.1-35.3 2.7-7.4 6.5-17.7 8.4-22.8 3.2-8.5 3.4-9.7 2.3-13-1.5-4.8-1.9-5.2-6.5-6.2-2.6-.6-4.7-.5-6.9.4-2.9 1.2-3.6 2.7-10.7 21.7-32.2 86.6-31.1 82.7-31.2 106.4-.1 14.8.2 18.1 2.2 25.4 8 29.4 28.2 51 56.2 60.3 8.8 2.9 10.5 3.2 23.5 3.2 11.7 0 15.3-.3 22-2.2 28.5-8.2 49.3-29 58.4-58.7 4.6-14.9 4.8-35.5.6-53.9-1.4-6.1-5.4-18.4-7.5-23.1-.5-1.1-2.4-6.3-4.4-11.5-3.5-9.7-25.3-68.6-36.9-100-17.8-48.1-20.7-56-20.7-57 0-2.5 9.3-21.9 17.4-36 15.9-28 33.5-49.4 52.9-64.1 8.3-6.3 10.5-7.2 8.7-3.9-.6 1.2-1.1 4.4-1.2 7.3 0 4.5.4 5.5 3.1 7.9 3.6 3.2 5.6 3.4 14.2 1.2 16.5-4.2 32.4-.8 42.3 9 6.1 6.2 12.4 18.2 14.6 27.9 1.6 7.3 2.7 9.5 7.5 14.6l4.5 4.8-2.5 1.7c-4.6 3-6.8 9.7-5.2 16.2.9 3.7 6 9.2 9.3 10 1.3.3 2.4.9 2.4 1.3s-2.5 3.3-5.6 6.3c-11.9 11.8-26.9 15.6-48.2 12.3-7.9-1.3-13.2 2.8-12.7 9.7.4 6.7 4.5 9.3 16.8 10.4l7.6.7v21.1c0 11.6.2 24.7.5 29.1.3 4.4.9 11.7 1.2 16.3.3 4.6.7 9.1.9 10 .1.9.6 5.3.9 9.7.4 4.4.9 8.7 1.1 9.5.2.8.6 3.7 1 6.5 2.6 21.8 9.3 52.5 18.9 87 1.4 4.9 2.6 9.5 2.6 10.2 0 .7-4.3 3.3-9.5 5.9-6.9 3.4-10 5.5-11 7.5-2.2 4.2-1.9 8.3 1 11.2 4.9 4.8 6.5 4.5 23.8-4 17.8-8.7 21.3-9.4 28.6-5.2 4.6 2.6 9.2 10.5 8.7 14.9-.2 1.4-.4 3.2-.5 4.1-.2 2.9-6.4 11.1-10.4 13.7l-4 2.6-35.8.1c-34.6.1-35.9.1-38.6 2.1-3.6 2.7-5 7.4-3.3 11.4 2.5 6 3.2 6.1 44.3 5.8l37.2-.3 6.5-3.2c7.5-3.7 10.1-5.8 15.7-13.3 18.4-24.5 3.6-58-26.4-59.6-4.2-.2-7.7-.5-7.7-.6-.4-.8-5.2-17.9-8.1-29.3-4.3-16.5-7.1-29.1-9-40.5-.3-1.9-1-5.8-1.5-8.5-.6-2.8-1.3-7.5-1.6-10.5-.3-3-.8-5.8-1-6.1-.2-.3-.6-3.6-.9-7.3-.4-3.7-.8-7.6-1-8.7-.2-1-.7-5.6-1.1-10.2-.3-4.5-.8-9.8-1-11.7-.9-6.8-1.3-59.5-.6-60.7.5-.7 2.9-1.9 5.5-2.7 14.2-4.3 31-18.8 38.3-33.2 3.6-7.2 3.9-8.3 3.9-16.4 0-11.3-2.2-15.7-13.7-27.4-4.9-4.9-8.8-9.7-8.8-10.6 0-.9-1.1-4.8-2.4-8.6-9.9-29.1-28.4-44.2-56.7-46.2l-9.1-.7 5.5-8.2c5.6-8.4 6.2-11.1 3.7-15.9-1.4-2.5-5.1-4.4-8.3-4.3-1.2 0-5.1 1.1-8.7 2.3z"/><path d="M122.4 102c-4.1.9-9.1 4.1-12.9 8-2.5 2.6-3 3.9-3 8.1 0 6 1.4 7.4 8.3 8.4 2.6.4 7.5 2.1 11 3.8 5.9 2.9 6.5 3 9 1.7 1.5-.9 3.5-3.3 4.6-5.4 1.7-3.4 1.7-4.4.6-9.4-2.5-11.5-9.2-17.2-17.6-15.2zM387.6 108.2c-3.9 2-7.8 6.7-10 11.9-3.2 7.6 1.3 15.7 7.8 14.3 5.2-1.1 11.6-1.2 15.2-.2 5.9 1.6 9.6-1 10.8-7.6 1-5.6-5-15.3-11.5-18.7-4.4-2.2-7.5-2.1-12.3.3z"/></svg>