<svg version="1" xmlns="http://www.w3.org/2000/svg" width="682.667" height="682.667" viewBox="0 0 512.000000 512.000000"><path d="M78.3 87.3c-1.8 4-6.7 14.8-10.8 24.2-4.2 9.3-8.5 19-9.7 21.5-1.1 2.4-9 20-17.5 39S23.5 209.2 22 212.5c-1.5 3.3-3.5 7.7-4.3 9.8l-1.6 3.7 8.2 7.9c4.5 4.3 9.8 9.3 11.7 11.1 4 3.7 23.8 22.6 71.5 68.1 10.4 10 11.8 11.4 32.4 30.9 22.9 21.8 26.7 25.4 37.7 35.9 5.5 5.3 18.1 17.2 27.9 26.6 9.8 9.3 22.8 21.8 28.9 27.7 6.1 5.8 11.3 10.4 11.6 10.2.2-.3.4-82.4.5-182.4V80H164l-82.5.1-3.2 7.2zM211 239.1c0 113.8-.1 122.1-1.7 120.8-.9-.8-3-2.8-4.8-4.4-1.7-1.7-10.7-10.3-20.1-19.2-9.3-8.8-19.4-18.4-22.4-21.3-3-2.9-13.1-12.5-22.4-21.3-9.3-8.9-18-17.3-19.5-18.6-2.4-2.2-27.8-26.5-51.2-48.9l-9.6-9.3L74 184.2c8.1-18 18.2-40.5 22.5-50l7.8-17.2H211v122.1zM264.9 81.2c-.2 6.4 0 363 .3 363.3.2.2 8.2-7.4 17.9-16.8l17.5-17.2-.1-104.3c-.1-57.3-.1-104.2-.1-104.3.1-.1 32.5-.3 72.1-.6l72-.4 4.9 9.8 4.8 9.7-12.3 11.9c-60.2 57.9-67 64.7-66.4 65.8.3.4.7 3.3 1.1 6.5.3 3.3.7 7.2.9 8.9.2 1.6.6 5.9 1 9.5.8 7.8 1.3 11.1 1.7 11.6.4.3 6.6-5.4 28.7-26.5 9.6-9.1 19.2-18.3 21.5-20.5 2.3-2.1 8.4-8 13.7-13 5.2-5 17.3-16.5 26.8-25.6 9.6-9.1 18.9-17.9 20.7-19.7l3.3-3.2-1.5-3.8c-.9-2.1-2.7-6.3-4.1-9.3-1.4-3-10.4-23.1-20-44.5-9.6-21.5-18.6-41.5-20-44.5-1.4-3-4.5-10-7-15.5s-5.6-12.5-7-15.5c-1.4-3-3.2-7.2-4-9.3l-1.5-3.7h-19.4c-10.7 0-19.4.4-19.4.9 0 .9 3.8 9.5 9.6 21.9 1.9 4 3.4 7.5 3.4 7.7 0 .2 1.1 2.8 2.5 5.7 5.4 11.5 26.3 58.3 26.1 58.5-.1.1-29.8.3-66.1.5l-66 .3-.2-46.5c-.1-25.6-.2-47.1-.2-47.8-.1-.9-4.3-1.2-17.6-1.2s-17.5.3-17.6 1.2z"/></svg>